<svg width="25" height="25" viewBox="0 0 25 25" fill="none" xmlns="http://www.w3.org/2000/svg">
<path d="M5.3645 15.365C5.76332 16.8534 6.64214 18.1686 7.86465 19.1067C9.08716 20.0448 10.585 20.5532 12.126 20.5532C13.6669 20.5532 15.1648 20.0448 16.3873 19.1067C17.6098 18.1686 18.4886 16.8534 18.8875 15.365" stroke="white" stroke-width="2"/>
<path d="M12.126 13.5532L11.5013 14.3341L12.126 14.8338L12.7507 14.3341L12.126 13.5532ZM13.126 4.55322C13.126 4.00094 12.6783 3.55322 12.126 3.55322C11.5737 3.55322 11.126 4.00094 11.126 4.55322L13.126 4.55322ZM6.50128 10.3341L11.5013 14.3341L12.7507 12.7724L7.75067 8.77235L6.50128 10.3341ZM12.7507 14.3341L17.7507 10.3341L16.5013 8.77235L11.5013 12.7724L12.7507 14.3341ZM13.126 13.5532L13.126 4.55322L11.126 4.55322L11.126 13.5532L13.126 13.5532Z" fill="white"/>
</svg>
