<?xml version="1.0" encoding="utf-8"?>
<!-- Generator: Adobe Illustrator 23.0.6, SVG Export Plug-In . SVG Version: 6.00 Build 0)  -->
<svg version="1.1" id="logotype" xmlns="http://www.w3.org/2000/svg" xmlns:xlink="http://www.w3.org/1999/xlink" x="0px" y="0px"
	 viewBox="0 0 404.51 100.01" style="enable-background:new 0 0 404.51 100.01;" xml:space="preserve">
<style type="text/css">
	.st0{fill:#0091D3;}
</style>
<g>
	<g>
		<path d="M171.58,73.12l-0.28-6.34c-0.37-8.57-0.28-13.61-9.42-16.22c5.97-0.56,8.57-5.5,8.57-11.09v-4.48
			c0-8.11-4.11-14.91-14.44-14.91h-29.92v59.84h17.25V58.21c9.6,0,10.44,2.79,10.72,7.93l0.37,7.17c0.09,2.33,0.24,4.52,0.98,6.61
			h17.15C171.82,77.89,171.68,75.45,171.58,73.12z M149.03,44.6h-5.68V33.69h4.57c4.57,0,5.41,2.05,5.41,5.87
			C153.31,42.08,152.94,44.6,149.03,44.6z"/>
		<path d="M208.68,31.83h-14.91c-8.39,0-14.54,4.94-14.54,13.24V66.7c0,8.3,6.15,13.24,14.54,13.24h14.91
			c8.39,0,14.54-4.94,14.54-13.24V45.07C223.22,36.77,217.07,31.83,208.68,31.83z M206.07,63.42c0,2.42-0.47,5.12-4.85,5.12
			s-4.85-2.7-4.85-5.12v-15c0-2.42,0.47-5.22,4.85-5.22s4.85,2.79,4.85,5.22V63.42z"/>
		<polygon points="256.97,79.93 275.79,79.93 259.48,54.38 273.93,31.83 255.57,31.83 250.53,40.41 245.03,31.83 226.2,31.83 
			240.93,54.85 224.71,79.93 243.07,79.93 249.79,68.74 		"/>
		<path d="M303.66,43.2V31.83h-7.92V20.45h-1.86L278.59,30.7v35.98c0,8.3,6.15,13.24,14.54,13.24h10.99l-0.1-11.37h-3.45
			c-4.38,0-4.85-2.7-4.85-5.12V43.2L303.66,43.2L303.66,43.2z"/>
		<path d="M353.44,58.2V45.06c0-8.3-6.15-13.24-14.54-13.24h-13.98c-8.39,0-14.54,4.94-14.54,13.24v21.63
			c0,8.3,6.15,13.24,14.54,13.24h13.98c8.39,0,14.54-4.94,14.54-13.24v-3.26h-17.15c0,2.42-0.37,5.12-4.38,5.12
			c-3.92,0-4.38-2.7-4.38-5.12v-5.22h25.91V58.2z M327.52,48.42c0-2.42,0.47-5.22,4.38-5.22c4.01,0,4.38,2.79,4.38,5.22v2.52h-8.76
			V48.42z"/>
		<path d="M404.51,48.32v-3.26c0-8.3-6.15-13.24-14.54-13.24h-13.98c-8.39,0-14.54,4.94-14.54,13.24v21.63
			c0,8.3,6.15,13.24,14.54,13.24h13.98c8.39,0,14.54-4.94,14.54-13.24v-3.26h-17.15c0,2.42-0.37,5.12-3.92,5.12
			c-4.38,0-4.85-2.7-4.85-5.12v-15c0-2.42,0.47-5.22,4.85-5.22c3.54,0,3.92,2.7,3.92,5.12h17.15V48.32z"/>
	</g>
	<g>
		<rect y="0.01" class="st0" width="100" height="100"/>
		<g>
			<path d="M65.29,50c0,20.07-9.06,38.02-23.32,50h11.7c12.21-13.1,19.7-30.67,19.7-50s-7.49-36.89-19.7-50h-11.7
				C56.22,11.98,65.29,29.93,65.29,50z"/>
			<path d="M42.78,50C42.78,26.37,23.62,7.22,0,7.22v85.57C23.63,92.78,42.78,73.64,42.78,50z"/>
			<path d="M50,50c0,27.61-22.38,50-50,50h29.52C46.6,89.89,58.06,71.29,58.06,50S46.6,10.11,29.52,0H0C27.61,0.01,50,22.39,50,50z"
				/>
		</g>
	</g>
</g>
</svg>
